<?xml version="1.0" encoding="UTF-8" standalone="no"?>
<!-- Created with Inkscape (http://www.inkscape.org/) -->

<svg
   width="200.0px"
   height="200.0px"
   viewBox="0 0 200.0 200.0"
   version="1.1"
   id="SVGRoot"
   xmlns:xlink="http://www.w3.org/1999/xlink"
   xmlns="http://www.w3.org/2000/svg"
   xmlns:svg="http://www.w3.org/2000/svg">
  <defs
     id="defs9">
    <linearGradient
       id="linearGradient14875">
      <stop
         style="stop-color:#ffffff;stop-opacity:1;"
         offset="0"
         id="stop14871" />
      <stop
         style="stop-color:#cecece;stop-opacity:1;"
         offset="1"
         id="stop14873" />
    </linearGradient>
    <linearGradient
       id="linearGradient9489">
      <stop
         style="stop-color:#000000;stop-opacity:1;"
         offset="0"
         id="stop9485" />
      <stop
         style="stop-color:#000000;stop-opacity:0;"
         offset="1"
         id="stop9487" />
    </linearGradient>
    <linearGradient
       xlink:href="#linearGradient9489"
       id="linearGradient9491"
       x1="46.361328"
       y1="10.489258"
       x2="224.92578"
       y2="120.23926"
       gradientUnits="userSpaceOnUse" />
    <linearGradient
       xlink:href="#linearGradient14875"
       id="linearGradient14877"
       x1="112.63135"
       y1="44.324337"
       x2="202.12608"
       y2="143.30037"
       gradientUnits="userSpaceOnUse"
       gradientTransform="translate(23.701606,44.157502)" />
    <linearGradient
       xlink:href="#linearGradient14875"
       id="linearGradient321"
       gradientUnits="userSpaceOnUse"
       x1="112.63135"
       y1="44.324337"
       x2="202.12608"
       y2="143.30037"
       gradientTransform="translate(23.701606,44.157502)" />
    <linearGradient
       xlink:href="#linearGradient14875"
       id="linearGradient323"
       gradientUnits="userSpaceOnUse"
       x1="112.63135"
       y1="44.324337"
       x2="202.12608"
       y2="143.30037"
       gradientTransform="translate(23.701606,44.157502)" />
    <linearGradient
       xlink:href="#linearGradient14875"
       id="linearGradient325"
       gradientUnits="userSpaceOnUse"
       x1="112.63135"
       y1="44.324337"
       x2="202.12608"
       y2="143.30037"
       gradientTransform="translate(23.701606,44.157502)" />
    <linearGradient
       xlink:href="#linearGradient14875"
       id="linearGradient327"
       gradientUnits="userSpaceOnUse"
       x1="112.63135"
       y1="44.324337"
       x2="202.12608"
       y2="143.30037"
       gradientTransform="translate(23.701606,44.157502)" />
    <linearGradient
       xlink:href="#linearGradient14875"
       id="linearGradient329"
       gradientUnits="userSpaceOnUse"
       x1="112.63135"
       y1="44.324337"
       x2="202.12608"
       y2="143.30037"
       gradientTransform="translate(23.701606,44.157502)" />
    <linearGradient
       xlink:href="#linearGradient14875"
       id="linearGradient331"
       gradientUnits="userSpaceOnUse"
       x1="112.63135"
       y1="44.324337"
       x2="202.12608"
       y2="143.30037"
       gradientTransform="translate(23.701606,44.157502)" />
    <linearGradient
       xlink:href="#linearGradient14875"
       id="linearGradient333"
       gradientUnits="userSpaceOnUse"
       x1="112.63135"
       y1="44.324337"
       x2="202.12608"
       y2="143.30037"
       gradientTransform="translate(23.701606,44.157502)" />
  </defs>
  <g
     id="layer1">
    <path
       id="rect5940"
       style="fill:#3c3c3c"
       d="M 4e-6,0 H 200 V 200 H 4e-6 Z" />
    <path
       id="path8731"
       style="fill:url(#linearGradient9491);fill-opacity:1;stroke:none;stroke-width:1px;stroke-linecap:butt;stroke-linejoin:miter;stroke-opacity:1"
       d="m 170.58035,26.426756 -5.76563,14.351562 -5.4707,-5.470703 -5.12305,4.132813 -3.8125,-3.8125 -6.20117,6.798828 -5.07812,-5.080078 -18.11133,4.669921 L 111.88699,32.88574 99.83816,54.930662 83.01199,38.10449 c 0,0 -14.378141,0.478516 -14.6875,0.478516 -0.309359,0 -1.535156,0.517578 -1.535156,0.517578 L 62.951443,35.307615 57.510037,39.321287 53.94949,35.76074 49.371365,39.682615 42.144802,32.456052 33.720974,42.383787 16.810818,56.987302 133.39871,173.57324 h 66.60156 V 54.891599 l -18.625,-18.625 -2.875,2.669922 1.3457,-3.246093 z" />
    <g
       aria-label="ProDark"
       transform="matrix(1.051638,0,0,0.95089755,-24.92551,-20.23926)"
       id="text131"
       style="font-style:italic;font-weight:900;font-size:42.0655px;line-height:1.25;font-family:'Fira Sans';-inkscape-font-specification:'Fira Sans, Heavy Italic';fill:url(#linearGradient14877);fill-opacity:1;stroke-width:1.05164">
      <path
         d="m 54.115689,51.936799 q 5.342319,0 8.286904,2.187406 2.98665,2.14534 2.98665,6.267759 0,2.860454 -1.346096,5.552646 -1.346096,2.650126 -4.290681,4.416877 -2.944585,1.724686 -7.445593,1.724686 h -2.860454 l -1.261965,9.128213 h -8.49723 l 4.080353,-29.277587 z m -1.892947,14.049877 q 2.397733,0 3.407305,-1.598489 1.009572,-1.598489 1.009572,-3.491437 0,-2.944585 -3.407305,-2.944585 h -1.808816 l -1.135769,8.034511 z"
         id="path8601"
         style="fill:url(#linearGradient321);fill-opacity:1" />
      <path
         d="m 81.332059,58.036296 q 1.177834,0 2.229472,0.37859 l -2.313603,8.03451 q -1.135768,-0.336524 -1.935013,-0.336524 -1.850882,0 -2.944585,1.472293 -1.093703,1.472292 -2.019144,4.164484 l -1.346095,9.464737 H 64.842384 L 67.955231,58.75141 H 75.0643 l 0.04206,3.996222 q 1.051638,-2.103275 2.776323,-3.407305 1.766751,-1.304031 3.449371,-1.304031 z"
         id="path8603"
         style="fill:url(#linearGradient323);fill-opacity:1" />
      <path
         d="m 94.624754,57.9101 q 4.627204,0 7.235266,2.608061 2.65013,2.565995 2.65013,7.024938 0,3.659698 -1.30403,6.940807 -1.26197,3.281109 -4.206555,5.42645 -2.902519,2.14534 -7.571789,2.14534 -4.627205,0 -7.235266,-2.565995 -2.608061,-2.565996 -2.608061,-7.151135 0,-3.659699 1.261965,-6.940807 1.304031,-3.281109 4.20655,-5.384384 2.944585,-2.103275 7.57179,-2.103275 z m -0.673048,5.973301 q -2.355668,0 -3.196978,2.818388 -0.84131,2.776323 -0.84131,6.057432 0,1.766751 0.504786,2.565995 0.546851,0.757179 1.68262,0.757179 2.397733,0 3.239043,-2.860454 0.84131,-2.902519 0.84131,-6.225693 0,-1.640555 -0.546851,-2.355668 -0.546852,-0.757179 -1.68262,-0.757179 z"
         id="path8605"
         style="fill:url(#linearGradient325);fill-opacity:1" />
      <path
         d="m 118.56004,51.936799 q 6.14156,0 9.84333,2.481865 3.70176,2.439798 3.70176,8.623427 0,8.118641 -3.95416,13.166501 -3.95415,5.005794 -13.08237,5.005794 h -9.71713 l 4.08036,-29.277587 z m -1.47229,6.099497 -2.39774,17.078593 h 1.64056 q 3.95415,0 5.46851,-3.575568 1.55643,-3.617632 1.55643,-8.413099 0,-2.860454 -1.09371,-3.954157 -1.0937,-1.135769 -3.4073,-1.135769 z"
         id="path8607"
         style="fill:url(#linearGradient327);fill-opacity:1" />
      <path
         d="m 146.07084,57.9101 q 2.48187,0 5.08993,0.673048 2.60806,0.630982 4.83753,1.977078 l -1.93501,13.418894 q -0.0841,0.757179 -0.0841,1.009572 0,0.673048 0.21032,1.051638 0.2524,0.336524 0.79925,0.546851 l -2.35567,5.300253 q -2.10327,-0.126197 -3.70176,-1.051637 -1.59849,-0.925441 -2.22948,-2.650127 -2.48186,3.870026 -6.60428,3.870026 -3.6597,0 -5.55264,-2.397733 -1.89295,-2.439799 -1.89295,-6.73048 0,-3.617633 1.34609,-7.024938 1.38817,-3.449371 4.37482,-5.720908 3.02871,-2.271537 7.69798,-2.271537 z m -0.33652,5.720908 q -2.4398,0 -3.57557,2.860454 -1.13577,2.818388 -1.13577,6.393955 0,1.892948 0.46272,2.565996 0.50479,0.630982 1.3461,0.630982 1.76675,0 3.23904,-2.52393 l 1.43023,-9.675064 q -0.92544,-0.252393 -1.76675,-0.252393 z"
         id="path8609"
         style="fill:url(#linearGradient329);fill-opacity:1" />
      <path
         d="m 172.99273,58.036296 q 1.17784,0 2.22948,0.37859 l -2.31361,8.03451 q -1.13577,-0.336524 -1.93501,-0.336524 -1.85088,0 -2.94458,1.472293 -1.09371,1.472292 -2.01915,4.164484 l -1.34609,9.464737 h -8.16071 l 3.11285,-22.462976 h 7.10906 l 0.0421,3.996222 q 1.05164,-2.103275 2.77632,-3.407305 1.76675,-1.304031 3.44937,-1.304031 z"
         id="path8611"
         style="fill:url(#linearGradient331);fill-opacity:1" />
      <path
         d="m 184.22422,61.107078 q 1.68262,-1.68262 3.44937,-2.439799 1.76675,-0.757179 3.82796,-0.757179 2.98665,0 4.66927,1.514358 1.72469,1.514358 1.72469,3.996222 0,5.174056 -5.59471,7.782117 l 3.61763,10.011589 h -8.91788 l -3.28111,-10.768768 q 3.28111,-1.135768 4.58514,-2.481864 1.34609,-1.346096 1.34609,-2.944585 0,-1.514358 -1.59849,-1.514358 -2.1874,0 -4.66927,3.533502 l -1.93501,14.176073 h -8.20277 l 4.37481,-31.296731 8.2869,-0.84131 z"
         id="path8613"
         style="fill:url(#linearGradient333);fill-opacity:1" />
    </g>
    <path
       id="rect12584"
       style="fill:#557bb6;fill-opacity:1;stroke:none;stroke-width:1.01685"
       d="m 85.28933,60.25293 -0.63086,4.05859 h 95.34766 l 0.625,-4.05859 z" />
  </g>
</svg>
